<?xml version="1.0" encoding="utf-8"?>
<!DOCTYPE svg PUBLIC "-//W3C//DTD SVG 20010904//EN" "http://www.w3.org/TR/2001/REC-SVG-20010904/DTD/svg10.dtd">
<svg height="500.000000pt" preserveAspectRatio="xMidYMid meet" version="1.0" viewBox="0 0 500.000000 500.000000" width="500.000000pt" xmlns="http://www.w3.org/2000/svg">
<g fill="#FFFFFF" stroke="#FFFFFF" transform="translate(0.000000,500.000000) scale(0.100000,-0.100000)">
<path d="M2380 4124 c-564 -65 -993 -328 -1270 -779 -39 -63 -110 -205 -110 -219 0 -3 29 -6 64 -6 62 0 64 1 76 33 47 116 172 290 300 417 241 238 533 381 870 426 593 79 1193 -218 1496 -741 22 -38 46 -85 54 -102 12 -32 14 -33 76 -33 35 0 64 3 64 6 0 3 -15 38 -33 77 -151 324 -445 617 -767 765 -153 70 -276 108 -445 138 -81 14 -311 26 -375 18z"/>
<path d="M2340 3899 c-370 -42 -731 -245 -952 -535 -48 -62 -148 -223 -148 -236 0 -5 8 -8 18 -8 13 0 38 31 78 96 212 344 559 573 969 639 290 46 620 -19 890 -177 185 -108 353 -274 470 -463 39 -64 65 -95 77 -95 10 0 18 3 18 8 0 13 -100 174 -148 236 -291 381 -788 590 -1272 535z"/>
<path d="M2189 3670 c-90 -16 -162 -87 -188 -186 -14 -51 -17 -54 -115 -93 -91 -36 -123 -59 -153 -109 -83 -137 17 -311 179 -312 52 0 48 6 66 -90 9 -50 3 -48 107 -30 106 18 273 11 376 -15 25 -6 27 -4 33 44 9 72 15 81 45 81 52 0 133 51 165 103 75 123 29 276 -133 438 -132 132 -264 190 -382 169z m191 -87 c94 -46 218 -166 270 -263 30 -57 35 -74 35 -137 0 -65 -3 -74 -31 -110 -30 -37 -117 -84 -130 -70 -12 12 6 56 26 62 22 7 80 62 80 76 0 5 -18 -3 -40 -17 -66 -44 -122 -44 -221 1 -46 20 -96 39 -111 42 -16 3 -28 9 -28 14 0 11 56 53 121 90 51 29 52 30 19 25 -60 -11 -136 -54 -207 -120 -84 -78 -99 -86 -160 -86 -39 0 -55 6 -86 31 -50 41 -50 14 -1 -41 42 -47 40 -70 -8 -70 -48 0 -114 36 -140 78 -32 53 -31 127 4 180 27 41 100 84 163 97 l30 7 -33 -31 c-46 -43 -12 -40 36 3 24 22 44 54 56 88 31 87 68 148 101 165 79 42 148 38 255 -14z m-12 -513 c29 -11 66 -20 82 -20 22 0 30 -5 30 -17 -1 -24 -27 -143 -32 -149 -3 -2 -29 1 -58 7 -54 12 -306 7 -347 -6 -19 -6 -22 -2 -33 52 -6 32 -14 67 -17 79 -4 18 1 21 38 22 25 1 59 12 83 27 55 32 175 35 254 5z"/>
<path d="M1208 2980 c-171 -30 -257 -112 -233 -220 7 -32 54 -70 87 -70 54 0 94 51 77 99 -7 18 -14 22 -32 16 -57 -18 -75 -17 -81 3 -18 55 43 111 147 136 l27 6 0 -145 0 -145 -35 0 c-28 0 -35 -4 -35 -20 0 -16 7 -20 34 -20 l34 0 4 -145 c4 -166 10 -180 78 -180 68 0 75 14 78 180 l3 145 90 0 c82 0 89 1 89 20 0 19 -7 20 -90 20 l-90 0 0 146 0 147 73 -5 c41 -3 89 -12 108 -22 32 -16 34 -16 46 1 17 22 16 28 -4 44 -19 16 -298 23 -375 9z"/>
<path d="M3642 2877 c-15 -43 -50 -75 -99 -92 -45 -16 -58 -45 -19 -45 l26 0 0 -189 c0 -187 0 -190 25 -219 45 -54 125 -52 181 5 40 39 50 81 11 45 -27 -26 -62 -29 -71 -6 -3 9 -6 94 -6 190 l0 174 53 0 c60 0 83 13 92 51 7 30 -17 62 -40 53 -17 -7 -20 -40 -5 -49 21 -13 -3 -25 -51 -25 l-49 0 0 70 c0 61 -2 70 -18 70 -11 0 -22 -12 -30 -33z"/>
<path d="M2936 2852 c-3 -5 1 -15 9 -22 16 -14 20 -57 6 -78 -7 -12 -14 -11 -40 3 -44 22 -118 29 -168 16 -136 -37 -185 -200 -92 -306 l31 -35 -26 -31 c-37 -43 -38 -89 -3 -126 11 -13 19 -24 16 -26 -2 -2 -17 -11 -32 -21 -62 -38 -55 -103 14 -130 59 -24 196 -25 270 -3 73 22 119 70 119 125 0 80 -49 110 -199 122 -125 9 -141 15 -141 45 0 22 3 22 89 21 84 -1 92 1 132 29 23 17 51 47 61 67 25 47 26 133 4 176 -17 32 -16 34 9 63 30 37 42 76 28 98 -11 18 -78 27 -87 13z m-102 -135 c63 -63 28 -295 -41 -273 -57 18 -72 207 -22 270 25 32 34 32 63 3z m47 -493 c15 -3 35 -14 44 -24 38 -42 -31 -90 -130 -90 -78 0 -125 21 -125 56 0 15 10 38 22 52 21 22 28 23 93 17 38 -3 82 -8 96 -11z"/>
<path d="M1720 2769 c-51 -15 -90 -56 -90 -94 0 -51 56 -85 88 -53 20 20 15 59 -8 65 -51 13 -3 56 57 51 81 -7 97 -103 23 -140 -19 -10 -61 -29 -92 -43 -73 -33 -102 -72 -102 -137 0 -59 26 -97 78 -117 45 -17 99 -4 140 34 l27 25 11 -25 c13 -30 59 -49 95 -40 38 9 83 43 83 63 0 12 -3 13 -12 4 -33 -33 -38 -15 -38 146 0 180 -10 212 -73 245 -44 22 -138 31 -187 16z m116 -234 c4 -14 4 -50 2 -80 -7 -84 -57 -123 -92 -73 -30 42 -12 156 26 171 33 14 58 7 64 -18z"/>
<path d="M2100 2759 c-36 -22 -50 -37 -50 -53 0 -6 5 -5 12 2 32 32 37 14 40 -167 3 -163 5 -182 24 -207 43 -58 116 -54 192 12 41 35 42 35 42 11 0 -74 123 -85 186 -16 20 22 12 38 -10 20 -31 -26 -36 -2 -36 189 0 155 -3 191 -15 204 -22 21 -52 29 -91 22 -38 -8 -97 -53 -88 -67 3 -6 11 -6 19 1 29 24 35 -1 35 -143 0 -139 0 -141 -27 -169 -31 -33 -68 -36 -83 -9 -6 11 -10 91 -10 189 0 189 -1 190 -67 198 -28 4 -48 -1 -73 -17z"/>
<path d="M3260 2771 c-74 -24 -138 -80 -164 -143 -9 -21 -16 -66 -16 -103 0 -116 52 -193 148 -221 81 -24 181 4 237 66 26 29 13 34 -26 11 -85 -52 -179 -7 -209 100 -8 28 -6 30 101 94 113 69 128 87 115 139 -3 13 -17 31 -32 41 -29 19 -117 28 -154 16z m59 -55 c19 -22 24 -79 9 -97 -7 -9 -35 -28 -62 -44 l-49 -28 6 62 c7 62 20 100 41 113 18 12 43 9 55 -6z"/>
<path d="M3977 2262 c-10 -10 -17 -35 -17 -55 0 -97 -79 -208 -187 -262 -110 -54 -199 -67 -533 -72 -320 -5 -418 1 -1045 66 -417 43 -891 52 -1120 21 -158 -22 -334 -78 -425 -135 -64 -40 -36 -51 41 -16 273 123 730 149 1424 80 110 -11 288 -28 395 -39 475 -47 940 -58 1125 -25 183 31 308 110 374 235 40 75 52 157 27 195 -20 30 -37 32 -59 7z"/>
<path d="M1540 2193 c-41 -15 -52 -69 -21 -97 22 -20 72 -18 79 2 3 11 0 12 -17 3 -40 -22 -82 20 -60 61 8 15 18 19 45 16 35 -4 46 5 18 16 -18 7 -23 7 -44 -1z"/>
<path d="M1821 2188 c0 -10 -7 -18 -13 -18 -10 0 -10 -2 -1 -8 6 -4 13 -23 15 -42 2 -26 8 -36 23 -38 18 -2 18 -2 3 8 -11 6 -18 23 -18 40 0 19 6 30 18 33 15 4 15 5 0 6 -9 0 -19 9 -21 19 -4 16 -5 16 -6 0z"/>
<path d="M3160 2190 c0 -5 5 -10 10 -10 6 0 10 5 10 10 0 6 -4 10 -10 10 -5 0 -10 -4 -10 -10z"/>
<path d="M3295 2176 c-17 -7 -36 -25 -43 -40 -6 -14 -18 -26 -26 -26 -27 0 -175 -81 -196 -107 -22 -28 -26 -53 -10 -53 6 0 34 18 62 41 90 71 143 93 224 94 56 0 76 4 93 19 60 55 -19 109 -104 72z m85 -50 c-8 -8 -28 -17 -45 -21 -29 -5 -29 -5 -5 6 14 6 32 15 40 19 23 13 26 12 10 -4z"/>
<path d="M1669 2149 c-8 -16 -8 -28 0 -46 9 -19 17 -23 46 -21 34 2 35 3 35 45 0 42 0 43 -35 43 -25 0 -37 -6 -46 -21z m66 -24 c0 -35 -31 -47 -51 -20 -18 25 0 57 29 53 17 -2 22 -10 22 -33z"/>
<path d="M1920 2154 c-31 -36 30 -98 63 -65 7 7 2 10 -18 8 -15 -1 -30 4 -32 11 -3 8 7 12 31 12 39 0 41 2 26 31 -13 23 -53 25 -70 3z m58 -11 c2 -8 -6 -13 -22 -13 -25 0 -33 10 -19 24 10 10 36 3 41 -11z"/>
<path d="M2062 2120 c1 -36 2 -39 5 -13 3 19 14 39 26 48 22 15 22 15 -6 13 -25 -2 -27 -5 -25 -48z"/>
<path d="M2173 2125 c0 -27 2 -38 4 -22 2 15 2 37 0 50 -2 12 -4 0 -4 -28z"/>
<path d="M2240 2126 c0 -55 17 -62 22 -8 2 29 7 37 23 37 16 0 21 -9 26 -40 l7 -40 -2 45 c-1 44 -1 45 -38 48 l-38 3 0 -45z"/>
<path d="M2390 2155 c-21 -25 -4 -65 31 -72 33 -6 28 -19 -11 -26 -22 -4 -22 -4 6 -6 41 -2 54 15 54 71 0 48 0 48 -34 48 -18 0 -39 -7 -46 -15z m68 -24 c6 -37 -26 -52 -52 -25 -12 12 -13 20 -5 35 15 28 53 21 57 -10z"/>
<path d="M3460 2156 c0 -15 24 -28 34 -19 13 14 5 33 -14 33 -11 0 -20 -6 -20 -14z"/>
<path d="M4100 2141 c-5 -11 -10 -30 -10 -43 0 -31 -52 -137 -84 -170 -41 -43 -90 -77 -132 -92 -21 -8 -31 -15 -22 -15 31 -2 125 39 164 70 81 64 153 190 140 244 -8 30 -41 34 -56 6z"/>
<path d="M3568 2111 c-31 -10 -72 -28 -91 -40 -19 -12 -51 -21 -72 -21 -36 0 -125 -45 -125 -62 0 -12 8 -10 36 8 13 9 27 14 30 12 3 -3 -11 -15 -31 -26 -48 -29 -45 -47 5 -22 54 28 63 25 15 -5 -26 -16 -34 -24 -22 -25 30 0 94 38 117 69 16 23 39 36 98 55 42 13 98 27 125 31 50 8 63 28 25 39 -33 8 -47 7 -110 -13z"/>
<path d="M1125 2069 c-97 -13 -248 -52 -336 -88 -89 -36 -73 -40 31 -7 112 36 247 56 418 63 133 5 175 13 160 28 -10 10 -209 13 -273 4z"/>
<path d="M3230 2035 c0 -9 5 -15 11 -13 6 2 11 8 11 13 0 5 -5 11 -11 13 -6 2 -11 -4 -11 -13z"/>
<path d="M1061 1738 c209 -391 585 -692 1009 -807 267 -73 574 -73 853 -2 387 100 750 372 966 724 71 117 72 107 -6 107 l-68 -1 -57 -87 c-185 -286 -454 -491 -786 -602 -173 -57 -278 -74 -472 -74 -194 0 -299 17 -472 74 -147 49 -252 101 -379 186 -159 107 -358 316 -439 462 l-24 42 -68 0 c-68 0 -69 0 -57 -22z"/>
<path d="M1340 1701 c217 -309 546 -522 910 -587 128 -23 372 -23 500 0 272 49 536 186 736 382 78 77 204 235 204 255 0 5 -8 9 -17 9 -11 0 -46 -37 -87 -90 -254 -335 -658 -534 -1086 -534 -154 0 -248 14 -407 60 -250 72 -526 266 -684 479 -48 65 -69 85 -87 85 -22 0 -22 -2 18 -59z"/>
<path d="M2475 1709 c-21 -45 -40 -59 -83 -59 -44 0 -46 -10 -7 -51 36 -36 36 -37 27 -88 -5 -28 -7 -51 -3 -51 3 0 25 10 48 22 l42 22 47 -22 c25 -13 48 -22 49 -20 2 2 -1 25 -6 53 -9 48 -8 50 26 85 39 40 37 50 -7 50 -43 0 -62 14 -83 59 -10 23 -21 41 -25 41 -4 0 -15 -18 -25 -41z"/>
<path d="M2149 1581 c-10 -33 -17 -40 -52 -51 l-41 -12 32 -27 c27 -22 32 -33 32 -70 l0 -43 35 27 c36 26 36 27 77 10 38 -15 40 -15 34 2 -19 48 -18 72 4 100 l22 28 -41 3 c-33 3 -44 9 -61 38 -12 18 -23 34 -25 34 -2 0 -9 -17 -16 -39z"/>
<path d="M2812 1584 c-19 -29 -28 -34 -63 -34 l-40 0 21 -31 c22 -29 23 -55 5 -101 -7 -17 -4 -17 35 -3 42 15 44 14 76 -10 l34 -26 0 44 c0 37 5 47 32 67 l32 24 -41 17 c-32 13 -43 24 -48 48 -9 43 -17 44 -43 5z"/>
</g>
</svg>